<?xml version="1.0" encoding="UTF-8" standalone="no"?>
<svg
   xmlns:dc="http://purl.org/dc/elements/1.1/"
   xmlns:cc="http://creativecommons.org/ns#"
   xmlns:rdf="http://www.w3.org/1999/02/22-rdf-syntax-ns#"
   xmlns:svg="http://www.w3.org/2000/svg"
   xmlns="http://www.w3.org/2000/svg"
   xmlns:sodipodi="http://sodipodi.sourceforge.net/DTD/sodipodi-0.dtd"
   xmlns:inkscape="http://www.inkscape.org/namespaces/inkscape"
   width="724.51953pt"
   height="70.753906pt"
   viewBox="0 0 724.51953 70.753906"
   version="1.2"
   id="svg119"
   sodipodi:docname="propagator.svg"
   inkscape:version="0.92.3 (2405546, 2018-03-11)">
  <metadata
     id="metadata123">
    <rdf:RDF>
      <cc:Work
         rdf:about="">
        <dc:format>image/svg+xml</dc:format>
        <dc:type
           rdf:resource="http://purl.org/dc/dcmitype/StillImage" />
        <dc:title></dc:title>
      </cc:Work>
    </rdf:RDF>
  </metadata>
  <sodipodi:namedview
     pagecolor="#ffffff"
     bordercolor="#666666"
     borderopacity="1"
     objecttolerance="10"
     gridtolerance="10"
     guidetolerance="10"
     inkscape:pageopacity="0"
     inkscape:pageshadow="2"
     inkscape:window-width="1853"
     inkscape:window-height="1145"
     id="namedview121"
     showgrid="false"
     inkscape:zoom="1.1360233"
     inkscape:cx="523.24454"
     inkscape:cy="60.794877"
     inkscape:window-x="67"
     inkscape:window-y="27"
     inkscape:window-maximized="1"
     inkscape:current-layer="svg119" />
  <defs
     id="defs8">
    <clipPath
       id="clip1">
      <path
         d="M 544,28 H 724.51953 V 42 H 544 Z m 0,0"
         id="path2"
         inkscape:connector-curvature="0" />
    </clipPath>
    <clipPath
       id="clip2">
      <path
         d="m 708,59 h 8 v 11.753906 h -8 z m 0,0"
         id="path5"
         inkscape:connector-curvature="0" />
    </clipPath>
  </defs>
  <g
     id="surface341">
    <g
       clip-path="url(#clip1)"
       id="g12"
       style="clip-rule:nonzero">
      <path
         style="fill:none;stroke:#000000;stroke-width:1.08114803;stroke-linecap:butt;stroke-linejoin:miter;stroke-miterlimit:4;stroke-opacity:1"
         d="M 577.29826,35.148438 C 760.48516,34.875 760.48516,34.875 760.48516,34.875"
         transform="scale(0.952707,1)"
         id="path10"
         inkscape:connector-curvature="0" />
    </g>
    <path
       style="fill:#000000;fill-opacity:1;fill-rule:evenodd;stroke:#000000;stroke-width:1.12562525;stroke-linecap:butt;stroke-linejoin:miter;stroke-miterlimit:4;stroke-opacity:1"
       d="m 560.29717,35.132812 4.11328,-4.33203 -14.41407,4.347655 14.42579,4.300782 z m 0,0"
       id="path14"
       inkscape:connector-curvature="0" />
    <path
       style="fill:none;stroke:#000000;stroke-width:1.08114803;stroke-linecap:butt;stroke-linejoin:miter;stroke-miterlimit:4;stroke-opacity:1"
       d="m 394.10726,35.421875 c 183.191,-0.273437 183.191,-0.273437 183.191,-0.273437"
       transform="scale(0.952707,1)"
       id="path16"
       inkscape:connector-curvature="0" />
    <path
       style="fill:#000000;fill-opacity:1;fill-rule:nonzero;stroke:none"
       d="m 450.67953,8.109375 c 0.40235,0 1.40235,0 1.40235,-0.84375 0,-0.574219 -0.60157,-0.574219 -1.1211,-0.574219 h -6.8164 c -4.57032,0 -7.89454,4.324219 -7.89454,7.367188 0,2.195312 1.6836,4.054687 4.44922,4.054687 3.60547,0 7.57422,-3.3125 7.57422,-7.164062 0,-1.015625 -0.27734,-1.992188 -1,-2.839844 z m -9.9414,9.460937 c -1.5625,0 -2.72657,-0.976562 -2.72657,-2.769531 0,-1.554687 1.125,-6.691406 5.61328,-6.691406 1.32422,0 2.80469,0.542969 2.80469,2.535156 0,0.878907 -0.48047,3.074219 -1.5625,4.5625 -1.12109,1.519531 -2.76562,2.363281 -4.1289,2.363281 z m 0,0"
       id="path18"
       inkscape:connector-curvature="0" />
    <path
       style="fill:#000000;fill-opacity:1;fill-rule:nonzero;stroke:none"
       d="m 458.57016,10.738281 c 0,-0.472656 -0.043,-0.472656 -0.60157,-0.472656 -0.84375,0.675781 -1.92578,1.082031 -3.85156,1.082031 v 0.574219 c 0.5625,0 1.64453,0 2.84766,-0.441406 v 8.820312 c 0,0.640625 -0.0781,0.84375 -2.00391,0.84375 h -0.72265 v 0.574219 c 0.84375,-0.06641 2.60546,-0.06641 3.52734,-0.06641 0.92187,0 2.6875,0 3.52734,0.06641 v -0.574219 h -0.71875 c -1.92578,0 -2.0039,-0.203125 -2.0039,-0.84375 z m 0,0"
       id="path20"
       inkscape:connector-curvature="0" />
    <path
       style="fill:#000000;fill-opacity:1;fill-rule:nonzero;stroke:none"
       d="m 692.35541,11.195312 c 0.40234,0 1.40625,0 1.40625,-0.84375 0,-0.574218 -0.60157,-0.574218 -1.125,-0.574218 h -6.8125 c -4.57032,0 -7.89844,4.324218 -7.89844,7.363281 0,2.199219 1.68359,4.054687 4.44922,4.054687 3.60937,0 7.57812,-3.308593 7.57812,-7.160156 0,-1.015625 -0.28125,-1.996094 -1.0039,-2.839844 z M 682.414,20.65625 c -1.5625,0 -2.72266,-0.980469 -2.72266,-2.769531 0,-1.554688 1.1211,-6.691407 5.60938,-6.691407 1.32422,0 2.80859,0.539063 2.80859,2.535157 0,0.878906 -0.48437,3.074219 -1.5664,4.558593 -1.1211,1.523438 -2.76563,2.367188 -4.12891,2.367188 z m 0,0"
       id="path22"
       inkscape:connector-curvature="0" />
    <path
       style="fill:#000000;fill-opacity:1;fill-rule:nonzero;stroke:none"
       d="m 700.34369,2.074219 c 0.12109,-0.203125 0.19922,-0.339844 0.19922,-0.507813 0,-0.574218 -0.64063,-0.945312 -1.19922,-0.945312 -0.80469,0 -1.04297,0.605468 -1.125,0.84375 l -2.60547,7.433594 c -0.0781,0.203124 -0.0781,0.238281 -0.0781,0.269531 0,0.136719 0.11719,0.167969 0.32032,0.238281 0.39843,0.132812 0.4414,0.132812 0.48047,0.132812 0.0391,0 0.16015,0 0.32031,-0.304687 z m 0,0"
       id="path24"
       inkscape:connector-curvature="0" />
    <path
       style="fill:#000000;fill-opacity:1;fill-rule:nonzero;stroke:none"
       d="m 700.24603,16.335938 c 0,-0.472657 -0.0391,-0.472657 -0.60156,-0.472657 -0.84375,0.675781 -1.92578,1.078125 -3.84766,1.078125 v 0.578125 c 0.5586,0 1.64453,0 2.84375,-0.441406 v 8.820313 c 0,0.640624 -0.0781,0.84375 -2.0039,0.84375 h -0.71875 v 0.574218 C 696.75775,27.25 698.52338,27.25 699.44525,27.25 c 0.92188,0 2.68359,0 3.52734,0.06641 v -0.574218 h -0.72265 c -1.92578,0 -2.00391,-0.203126 -2.00391,-0.84375 z m 0,0"
       id="path26"
       inkscape:connector-curvature="0" />
    <path
       style="fill:#000000;fill-opacity:1;fill-rule:nonzero;stroke:none"
       d="m 404.64047,11.980469 c 0,-2.5 -1.68359,-4.832031 -4.92969,-4.832031 -4.01172,0 -8.01953,3.683593 -8.01953,7.363281 0,2.230469 1.64453,4.292969 4.76953,4.292969 1.88672,0 4.17188,-0.640626 6.33594,-2.195313 0.44141,1.453125 1.40234,2.195313 2.72656,2.195313 1.64063,0 2.48438,-1.453126 2.48438,-1.789063 0,-0.238281 -0.24219,-0.238281 -0.32032,-0.238281 -0.24218,0 -0.28125,0.06641 -0.36328,0.269531 -0.27734,0.675781 -1,1.21875 -1.72265,1.21875 -0.96094,0 -0.96094,-1.65625 -0.96094,-3.210937 3.125,-3.175782 3.88672,-6.421876 3.88672,-6.453126 0,-0.238281 -0.28125,-0.238281 -0.35938,-0.238281 -0.28125,0 -0.28125,0.101563 -0.4414,0.539063 -0.35938,1.152344 -1.16407,3.179687 -3.08594,5.273437 z M 402.71469,16 c -2.6836,2.027344 -5.12891,2.265625 -6.21094,2.265625 -2.16797,0 -2.76562,-1.625 -2.76562,-2.839844 0,-1.113281 0.67968,-3.75 1.60156,-5.167969 1.28125,-1.792968 3.00781,-2.605468 4.37109,-2.605468 2.96485,0 2.96485,3.28125 2.96485,5.441406 0,0.640625 -0.0391,1.316406 -0.0391,1.960938 0,0.539062 0.0391,0.675781 0.0781,0.945312 z m 0,0"
       id="path28"
       inkscape:connector-curvature="0" />
    <path
       style="fill:#000000;fill-opacity:1;fill-rule:nonzero;stroke:none"
       d="m 415.96469,11.429688 c 0,-0.472657 -0.043,-0.472657 -0.60156,-0.472657 -0.84375,0.675781 -1.92579,1.082031 -3.84766,1.082031 v 0.574219 c 0.55859,0 1.64062,0 2.84375,-0.441406 v 8.820313 c 0,0.640624 -0.0781,0.84375 -2.00391,0.84375 h -0.72265 v 0.574218 c 0.84375,-0.06641 2.60547,-0.06641 3.52734,-0.06641 0.92188,0 2.6875,0 3.53125,0.06641 v -0.574218 h -0.72266 c -1.92578,0 -2.0039,-0.203126 -2.0039,-0.84375 z m 0,0"
       id="path30"
       inkscape:connector-curvature="0" />
    <path
       style="fill:#000000;fill-opacity:1;fill-rule:nonzero;stroke:none"
       d="m 644.67572,14.292969 c 0,-2.5 -1.68359,-4.832031 -4.92969,-4.832031 -4.00781,0 -8.01953,3.683593 -8.01953,7.367187 0,2.226563 1.64453,4.289063 4.77344,4.289063 1.88281,0 4.16797,-0.640626 6.33203,-2.195313 0.44141,1.453125 1.40234,2.195313 2.72656,2.195313 1.64453,0 2.48438,-1.453126 2.48438,-1.789063 0,-0.238281 -0.23828,-0.238281 -0.32032,-0.238281 -0.24218,0 -0.28125,0.06641 -0.35937,0.269531 -0.28125,0.675781 -1.00391,1.21875 -1.72656,1.21875 -0.96094,0 -0.96094,-1.65625 -0.96094,-3.210937 3.12891,-3.175782 3.89062,-6.421876 3.89062,-6.453126 0,-0.238281 -0.28125,-0.238281 -0.36328,-0.238281 -0.28125,0 -0.28125,0.101563 -0.4414,0.542969 -0.35938,1.148438 -1.16016,3.175781 -3.08594,5.269531 z m -1.92188,4.019531 c -2.6875,2.027344 -5.13281,2.265625 -6.21484,2.265625 -2.16406,0 -2.76562,-1.621094 -2.76562,-2.839844 0,-1.113281 0.67968,-3.75 1.60156,-5.167969 1.28515,-1.792968 3.00781,-2.601562 4.37109,-2.601562 2.96485,0 2.96485,3.277344 2.96485,5.4375 0,0.644531 -0.0391,1.320312 -0.0391,1.960938 0,0.539062 0.0391,0.675781 0.082,0.945312 z m 0,0"
       id="path32"
       inkscape:connector-curvature="0" />
    <path
       style="fill:#000000;fill-opacity:1;fill-rule:nonzero;stroke:none"
       d="m 655.19525,1.996094 c 0.12109,-0.203125 0.19922,-0.339844 0.19922,-0.507813 0,-0.574219 -0.64063,-0.945312 -1.20313,-0.945312 -0.80078,0 -1.03906,0.609375 -1.12109,0.84375 l -2.60547,7.433593 c -0.0781,0.203126 -0.0781,0.238282 -0.0781,0.273438 0,0.132812 0.11718,0.167969 0.32031,0.234375 0.39844,0.136719 0.44141,0.136719 0.48047,0.136719 0.0391,0 0.16015,0 0.32031,-0.304688 z m 0,0"
       id="path34"
       inkscape:connector-curvature="0" />
    <path
       style="fill:#000000;fill-opacity:1;fill-rule:nonzero;stroke:none"
       d="m 656.00384,16.257812 c 0,-0.472656 -0.043,-0.472656 -0.60156,-0.472656 -0.84375,0.675782 -1.92578,1.082032 -3.84765,1.082032 v 0.574218 c 0.55859,0 1.64062,0 2.84375,-0.441406 v 8.820312 c 0,0.640626 -0.0781,0.84375 -2.00391,0.84375 h -0.72266 v 0.574219 c 0.84375,-0.06641 2.60547,-0.06641 3.52735,-0.06641 0.92187,0 2.6875,0 3.52734,0.06641 v -0.574219 h -0.71875 c -1.92578,0 -2.00391,-0.203124 -2.00391,-0.84375 z m 0,0"
       id="path36"
       inkscape:connector-curvature="0" />
    <path
       style="fill:#000000;fill-opacity:1;fill-rule:nonzero;stroke:none"
       d="m 404.96859,52.332031 c 0,-0.132812 -0.12109,-0.234375 -0.28125,-0.234375 -0.23828,0 -1.40234,0.945313 -2.0039,1.859375 -0.5625,-1.183593 -1.48438,-1.859375 -2.80469,-1.859375 -3.48828,0 -7.21484,3.75 -7.21484,7.601563 0,2.535156 1.76172,4.054687 3.84765,4.054687 1.64453,0 2.96485,-1.046875 3.60547,-1.65625 l 0.043,0.03516 -1.16406,3.886719 -0.28125,0.945313 c -0.28125,0.742187 -0.72266,0.742187 -2.16406,0.777344 -0.32032,0 -0.64063,0 -0.64063,0.507812 0,0.167969 0.19922,0.234375 0.39844,0.234375 0.4414,0 0.96484,-0.03125 1.40625,-0.03125 h 3.125 c 0.48047,0 1.0039,0.03125 1.44531,0.03125 0.19922,0 0.55859,0 0.55859,-0.472656 0,-0.269531 -0.23828,-0.269531 -0.72265,-0.269531 -1.44141,0 -1.51953,-0.167969 -1.51953,-0.371094 0,-0.136719 0.0391,-0.171875 0.11718,-0.507813 z m -4.32812,8.078125 c -0.12109,0.4375 -0.12109,0.507813 -0.5625,0.980469 -0.67969,0.707031 -2.04297,1.824219 -3.44531,1.824219 -1.28516,0 -1.96485,-0.945313 -1.96485,-2.46875 0,-1.417969 0.92188,-4.324219 1.52344,-5.40625 1.03906,-1.824219 2.48438,-2.734375 3.6875,-2.734375 2.00391,0 2.40625,2.128906 2.40625,2.328125 0,0.03516 -0.082,0.339844 -0.12109,0.40625 z m 0,0"
       id="path38"
       inkscape:connector-curvature="0" />
    <path
       style="fill:#000000;fill-opacity:1;fill-rule:nonzero;stroke:none"
       d="m 411.18734,56.382812 c 0,-0.472656 -0.0391,-0.472656 -0.60156,-0.472656 -0.83984,0.675782 -1.92187,1.082032 -3.84765,1.082032 v 0.574218 c 0.5625,0 1.64453,0 2.84765,-0.441406 v 8.820312 c 0,0.640626 -0.082,0.84375 -2.0039,0.84375 h -0.72266 v 0.574219 c 0.84375,-0.06641 2.60547,-0.06641 3.52734,-0.06641 0.92188,0 2.6875,0 3.52735,0.06641 v -0.574219 h -0.72266 c -1.92187,0 -2.00391,-0.203124 -2.00391,-0.84375 z m 0,0"
       id="path40"
       inkscape:connector-curvature="0" />
    <path
       style="fill:#000000;fill-opacity:1;fill-rule:nonzero;stroke:none"
       d="m 646.56634,48.863281 c 0,-0.132812 -0.12109,-0.234375 -0.28125,-0.234375 -0.24218,0 -1.40234,0.945313 -2.0039,1.855469 -0.5625,-1.179687 -1.48438,-1.855469 -2.80469,-1.855469 -3.48828,0 -7.21875,3.75 -7.21875,7.601563 0,2.535156 1.76563,4.054687 3.84766,4.054687 1.64453,0 2.96875,-1.046875 3.60937,-1.65625 l 0.0391,0.03516 -1.16015,3.882813 -0.28125,0.949219 c -0.28125,0.742187 -0.72266,0.742187 -2.16406,0.777344 -0.32032,0 -0.64063,0 -0.64063,0.503906 0,0.171875 0.19922,0.238281 0.39844,0.238281 0.4414,0 0.96094,-0.03516 1.40234,-0.03516 h 3.12891 c 0.48047,0 1,0.03516 1.4414,0.03516 0.20313,0 0.5625,0 0.5625,-0.472656 0,-0.269531 -0.24218,-0.269531 -0.72265,-0.269531 -1.44141,0 -1.52344,-0.171876 -1.52344,-0.371094 0,-0.136719 0.043,-0.171875 0.12109,-0.507813 z m -4.32812,8.078125 c -0.12109,0.4375 -0.12109,0.503906 -0.5625,0.976563 -0.68359,0.710937 -2.04688,1.828125 -3.44922,1.828125 -1.28125,0 -1.96484,-0.949219 -1.96484,-2.46875 0,-1.417969 0.92187,-4.324219 1.52343,-5.40625 1.04297,-1.824219 2.48829,-2.738282 3.69141,-2.738282 2.00391,0 2.40234,2.128907 2.40234,2.332032 0,0.03516 -0.0781,0.339844 -0.12109,0.40625 z m 0,0"
       id="path42"
       inkscape:connector-curvature="0" />
    <path
       style="fill:#000000;fill-opacity:1;fill-rule:nonzero;stroke:none"
       d="m 652.88275,41.164062 c 0.12109,-0.203124 0.20313,-0.339843 0.20313,-0.507812 0,-0.574219 -0.64454,-0.945312 -1.20313,-0.945312 -0.80469,0 -1.04297,0.605468 -1.125,0.84375 l -2.60547,7.433593 c -0.0781,0.203125 -0.0781,0.238281 -0.0781,0.269531 0,0.136719 0.12109,0.171876 0.32031,0.238282 0.40234,0.132812 0.44141,0.132812 0.48047,0.132812 0.0391,0 0.16015,0 0.32031,-0.300781 z m 0,0"
       id="path44"
       inkscape:connector-curvature="0" />
    <path
       style="fill:#000000;fill-opacity:1;fill-rule:nonzero;stroke:none"
       d="m 652.78509,55.425781 c 0,-0.472656 -0.0391,-0.472656 -0.60156,-0.472656 -0.83984,0.675781 -1.92187,1.082031 -3.84765,1.082031 v 0.574219 c 0.5625,0 1.64453,0 2.84765,-0.441406 v 8.820312 c 0,0.640625 -0.082,0.84375 -2.0039,0.84375 h -0.72266 v 0.574219 c 0.83984,-0.06641 2.60547,-0.06641 3.52734,-0.06641 0.92188,0 2.6836,0 3.52735,0.06641 V 65.832031 H 654.789 c -1.92187,0 -2.00391,-0.203125 -2.00391,-0.84375 z m 0,0"
       id="path46"
       inkscape:connector-curvature="0" />
    <path
       style="fill:#000000;fill-opacity:1;fill-rule:nonzero;stroke:none"
       d="m 443.31625,55.726562 c 0,-0.101562 -0.082,-0.238281 -0.32031,-0.238281 -0.20313,0 -3.08594,0.238281 -3.57031,0.238281 -0.32032,0.03516 -0.64063,0.06641 -0.64063,0.539063 0,0.238281 0.24219,0.238281 0.68359,0.238281 1.44141,0 1.52344,0.203125 1.52344,0.472656 0,0.101563 -0.043,0.40625 -0.082,0.507813 l -2.68359,9.121094 c 0,0.101562 0.0781,0.273437 0.27734,0.273437 h 0.64453 c 0.4375,0 5.08985,-0.949218 8.69531,-4.023437 3.92969,-3.445313 4.49219,-6.621094 4.49219,-6.722657 0,-0.40625 -0.40234,-0.644531 -0.80078,-0.644531 -0.88281,0 -1.08594,0.675781 -1.16406,0.878907 -1.80469,5.40625 -6.01172,8.582031 -10.0625,9.734374 z m 0,0"
       id="path48"
       inkscape:connector-curvature="0" />
    <g
       clip-path="url(#clip2)"
       id="g52"
       transform="translate(-255.00016)"
       style="clip-rule:nonzero">
      <path
         style="fill:#000000;fill-opacity:1;fill-rule:nonzero;stroke:none"
         d="m 712.83594,59.773438 c 0,-0.472657 -0.043,-0.472657 -0.60157,-0.472657 -0.84375,0.675781 -1.92578,1.082031 -3.85156,1.082031 v 0.574219 c 0.5625,0 1.64453,0 2.84766,-0.441406 v 8.820313 c 0,0.640624 -0.0781,0.84375 -2.00391,0.84375 h -0.72265 v 0.574218 c 0.84375,-0.06641 2.60546,-0.06641 3.52734,-0.06641 0.92187,0 2.6875,0 3.52734,0.06641 v -0.574218 h -0.71875 c -1.92578,0 -2.0039,-0.203126 -2.0039,-0.84375 z m 0,0"
         id="path50"
         inkscape:connector-curvature="0" />
    </g>
    <path
       style="fill:#000000;fill-opacity:1;fill-rule:nonzero;stroke:none"
       d="m 683.12884,49.558594 c 0,-0.101563 -0.0781,-0.238282 -0.32031,-0.238282 -0.19922,0 -3.08594,0.238282 -3.5664,0.238282 -0.32032,0.03516 -0.64063,0.06641 -0.64063,0.539062 0,0.238282 0.23828,0.238282 0.67969,0.238282 1.44531,0 1.52344,0.203124 1.52344,0.472656 0,0.101562 -0.0391,0.40625 -0.0781,0.507812 L 678.039,60.4375 c 0,0.101562 0.082,0.269531 0.28125,0.269531 h 0.64063 c 0.4414,0 5.08984,-0.945312 8.69921,-4.019531 3.92969,-3.445312 4.48829,-6.621094 4.48829,-6.722656 0,-0.40625 -0.39844,-0.644532 -0.80079,-0.644532 -0.88281,0 -1.08203,0.675782 -1.16015,0.878907 -1.80469,5.40625 -6.01563,8.582031 -10.0625,9.734375 z m 0,0"
       id="path54"
       inkscape:connector-curvature="0" />
    <path
       style="fill:#000000;fill-opacity:1;fill-rule:nonzero;stroke:none"
       d="m 698.58197,41.855469 c 0.12109,-0.199219 0.19922,-0.335938 0.19922,-0.503907 0,-0.574218 -0.64063,-0.945312 -1.20313,-0.945312 -0.80078,0 -1.04297,0.605469 -1.12109,0.84375 l -2.60547,7.433594 c -0.082,0.203125 -0.082,0.234375 -0.082,0.269531 0,0.136719 0.12109,0.167969 0.32031,0.238281 0.40235,0.132813 0.44141,0.132813 0.48438,0.132813 0.0391,0 0.16015,0 0.32031,-0.304688 z m 0,0"
       id="path56"
       inkscape:connector-curvature="0" />
    <path
       style="fill:#000000;fill-opacity:1;fill-rule:nonzero;stroke:none"
       d="m 697.64838,56.121094 c 0,-0.472656 -0.0391,-0.472656 -0.60157,-0.472656 -0.83984,0.675781 -1.92187,1.078124 -3.84765,1.078124 v 0.574219 c 0.5625,0 1.64453,0 2.84765,-0.4375 v 8.820313 c 0,0.640625 -0.082,0.84375 -2.0039,0.84375 h -0.72266 v 0.574218 c 0.83984,-0.06641 2.60547,-0.06641 3.52734,-0.06641 0.92188,0 2.6836,0 3.52735,0.06641 v -0.574218 h -0.72266 c -1.92187,0 -2.0039,-0.203125 -2.0039,-0.84375 z m 0,0"
       id="path58"
       inkscape:connector-curvature="0" />
    <path
       style="fill:#000000;fill-opacity:1;fill-rule:nonzero;stroke:none"
       d="m 64.90625,1.625 c 0,-0.417969 0,-0.996094 -0.621094,-0.996094 -0.621094,0 -0.621094,0.578125 -0.621094,0.996094 v 24.695312 c 0,0.417969 0,0.996094 0.621094,0.996094 0.621094,0 0.621094,-0.578125 0.621094,-0.996094 z m 0,0"
       id="path60"
       inkscape:connector-curvature="0" />
    <path
       style="fill:#000000;fill-opacity:1;fill-rule:nonzero;stroke:none"
       d="M 92.429688,1.78125 C 92.585938,1.46875 92.636719,1.257812 92.636719,1.152344 92.636719,0.523438 92.066406,0 91.394531,0 90.617188,0 90.359375,0.679688 90.308594,0.996094 L 87.511719,9.59375 c 0,0.105469 -0.105469,0.261719 -0.105469,0.316406 0,0.367188 0.832031,0.523438 0.832031,0.523438 0.207031,0 0.257813,-0.15625 0.359375,-0.316406 z m 0,0"
       id="path62"
       inkscape:connector-curvature="0" />
    <path
       style="fill:#000000;fill-opacity:1;fill-rule:nonzero;stroke:none"
       d="m 27.59375,14.886719 c 0,-0.367188 -0.308594,-0.367188 -0.363281,-0.367188 -0.101563,0 -0.257813,0 -0.570313,0.417969 l -2.742187,3.355469 C 23.710938,17.925781 22.933594,16.5625 21.382812,15.621094 19.671875,14.519531 18.015625,14.519531 17.394531,14.519531 8.90625,14.519531 0,23.273438 0,32.761719 c 0,6.609375 4.503906,10.855469 10.457031,10.855469 2.847657,0 6.472657,-0.945313 8.4375,-3.460938 0.46875,1.519531 1.296875,2.570312 1.605469,2.570312 0.207031,0 0.207031,-0.105468 0.261719,-0.105468 0.05078,-0.105469 0.359375,-1.46875 0.566406,-2.203125 l 0.621094,-2.570313 c 0.3125,-1.308594 0.46875,-1.886718 0.777343,-3.09375 0.363282,-1.519531 0.46875,-1.625 2.640626,-1.675781 0.15625,0 0.621093,0 0.621093,-0.785156 0,-0.367188 -0.414062,-0.367188 -0.515625,-0.367188 -0.675781,0 -1.398437,0.05078 -2.125,0.05078 h -2.121094 c -1.707031,0 -3.417968,-0.05078 -5.074218,-0.05078 -0.363282,0 -0.828125,0 -0.828125,0.679688 0,0.421875 0.3125,0.421875 0.3125,0.472656 h 1.035156 c 3.105469,0 3.105469,0.3125 3.105469,0.890625 0,0.05469 -0.777344,4.089844 -1.503906,5.296875 -1.5,2.253906 -4.65625,3.195313 -6.988282,3.195313 -3.054687,0 -7.972656,-1.625 -7.972656,-8.542969 0,-2.675781 0.933594,-8.808594 4.765625,-13.371094 2.535156,-2.882813 6.210937,-4.824219 9.679687,-4.824219 4.660157,0 6.316407,4.039063 6.316407,7.707032 0,0.683593 -0.15625,1.523437 -0.15625,2.097656 0,0.367187 0.414062,0.367187 0.519531,0.367187 0.464844,0 0.464844,-0.05078 0.621094,-0.785156 z m 0,0"
       id="path64"
       inkscape:connector-curvature="0" />
    <path
       style="fill:#000000;fill-opacity:1;fill-rule:nonzero;stroke:none"
       d="m 42.089844,16.9375 c 2.484375,-2.726562 3.3125,-6.242188 3.3125,-6.449219 0,-0.210937 -0.15625,-0.316406 -0.363282,-0.316406 -0.363281,0 -0.363281,0.105469 -0.515624,0.628906 -0.777344,2.726563 -2.332032,4.824219 -2.433594,4.824219 -0.05469,0 -0.05469,-0.679688 -0.05469,-1.101562 -0.05078,-4.71875 -3.054687,-5.660157 -4.863281,-5.660157 -3.730469,0 -7.40625,3.667969 -7.40625,7.445313 0,2.621094 1.863281,4.613281 4.660156,4.613281 1.8125,0 3.78125,-0.683594 5.851563,-2.253906 0.621094,2.148437 2.121094,2.253906 2.585937,2.253906 1.503907,0 2.382813,-1.363281 2.382813,-1.890625 0,-0.3125 -0.308594,-0.3125 -0.363282,-0.3125 -0.308593,0 -0.359374,0.105469 -0.464843,0.261719 C 44.003906,20.132812 43.125,20.1875 42.96875,20.1875 c -0.363281,0 -0.777344,0 -0.878906,-3.25 z m -1.96875,0.835938 c -1.863282,1.730468 -4.089844,2.414062 -5.644532,2.414062 -1.34375,0 -2.535156,-0.789062 -2.535156,-2.9375 0,-0.941406 0.414063,-3.722656 1.65625,-5.503906 1.035156,-1.46875 2.484375,-2.148438 3.574219,-2.148438 1.449219,0 2.277344,1.046875 2.585937,2.671875 0.414063,1.835938 0.207032,3.984375 0.363282,5.503907 z m 0,0"
       id="path66"
       inkscape:connector-curvature="0" />
    <path
       style="fill:#000000;fill-opacity:1;fill-rule:nonzero;stroke:none"
       d="m 53.742188,11.632812 c 0,-0.628906 -0.05078,-0.628906 -0.671876,-0.628906 C 51.773438,12.3125 49.753906,12.3125 49.03125,12.3125 v 0.789062 c 0.515625,0 1.863281,0 3.054688,-0.578124 v 10.121093 c 0,0.679688 0,0.941407 -2.070313,0.941407 H 49.1875 v 0.785156 c 1.085938,-0.101563 2.640625,-0.101563 3.726562,-0.101563 1.085938,0 2.640626,0 3.726563,0.101563 V 23.585938 H 55.8125 c -2.070312,0 -2.070312,-0.261719 -2.070312,-0.941407 z m 0,0"
       id="path68"
       inkscape:connector-curvature="0" />
    <path
       style="fill:#000000;fill-opacity:1;fill-rule:nonzero;stroke:none"
       d="m 81.65625,16.9375 c 2.484375,-2.726562 3.3125,-6.242188 3.3125,-6.449219 0,-0.210937 -0.152344,-0.316406 -0.359375,-0.316406 -0.363281,0 -0.363281,0.105469 -0.519531,0.628906 C 83.3125,13.527344 81.761719,15.625 81.65625,15.625 c -0.05078,0 -0.05078,-0.679688 -0.05078,-1.101562 -0.05078,-4.71875 -3.054688,-5.660157 -4.867188,-5.660157 -3.726562,0 -7.402343,3.667969 -7.402343,7.445313 0,2.621094 1.863281,4.613281 4.660156,4.613281 1.808594,0 3.777344,-0.683594 5.847656,-2.253906 0.621094,2.148437 2.125,2.253906 2.589844,2.253906 1.5,0 2.382812,-1.363281 2.382812,-1.890625 0,-0.3125 -0.3125,-0.3125 -0.363281,-0.3125 -0.3125,0 -0.363281,0.105469 -0.46875,0.261719 -0.414063,1.152343 -1.292969,1.207031 -1.449219,1.207031 -0.359375,0 -0.773437,0 -0.878907,-3.25 z m -1.96875,0.835938 c -1.863281,1.730468 -4.089844,2.414062 -5.640625,2.414062 -1.347656,0 -2.539063,-0.789062 -2.539063,-2.9375 0,-0.941406 0.414063,-3.722656 1.660157,-5.503906 1.035156,-1.46875 2.484375,-2.148438 3.570312,-2.148438 1.449219,0 2.277344,1.046875 2.589844,2.671875 0.414063,1.835938 0.207031,3.984375 0.359375,5.503907 z m 0,0"
       id="path70"
       inkscape:connector-curvature="0" />
    <path
       style="fill:#000000;fill-opacity:1;fill-rule:nonzero;stroke:none"
       d="m 93.308594,16.21875 c 0,-0.628906 -0.05078,-0.628906 -0.671875,-0.628906 -1.292969,1.3125 -3.3125,1.3125 -4.039063,1.3125 V 17.6875 c 0.519532,0 1.863282,0 3.054688,-0.578125 v 10.121094 c 0,0.679687 0,0.941406 -2.070313,0.941406 h -0.828125 v 0.789063 c 1.085938,-0.105469 2.640625,-0.105469 3.726563,-0.105469 1.089843,0 2.640625,0 3.730469,0.105469 v -0.789063 h -0.832032 c -2.070312,0 -2.070312,-0.261719 -2.070312,-0.941406 z m 0,0"
       id="path72"
       inkscape:connector-curvature="0" />
    <path
       style="fill:#000000;fill-opacity:1;fill-rule:nonzero;stroke:none"
       d="m 43.125,45.980469 c 0.464844,0 0.671875,0 0.984375,-0.210938 0.257813,-0.261719 0.414063,-0.628906 0.414063,-0.835937 0,-0.734375 -0.675782,-0.734375 -1.140626,-0.734375 h -6.472656 c -4.089844,0 -7.195312,4.246093 -7.195312,7.445312 0,2.621094 1.863281,4.351563 4.296875,4.351563 3.3125,0 6.9375,-3.253906 6.9375,-7.238282 0,-1.414062 -0.515625,-2.253906 -0.777344,-2.777343 z m -9.0625,9.28125 c -1.34375,0 -2.484375,-0.890625 -2.484375,-2.832031 0,-1.152344 0.621094,-6.449219 4.867187,-6.449219 2.589844,0 2.589844,1.992187 2.589844,2.515625 0,2.78125 -1.863281,6.765625 -4.972656,6.765625 z m 0,0"
       id="path74"
       inkscape:connector-curvature="0" />
    <path
       style="fill:#000000;fill-opacity:1;fill-rule:nonzero;stroke:none"
       d="m 51.753906,46.707031 c 0,-0.628906 -0.05078,-0.628906 -0.671875,-0.628906 -1.296875,1.308594 -3.3125,1.308594 -4.039062,1.308594 v 0.789062 c 0.519531,0 1.863281,0 3.054687,-0.578125 v 10.117188 c 0,0.683594 0,0.945312 -2.070312,0.945312 h -0.828125 v 0.785156 c 1.085937,-0.101562 2.640625,-0.101562 3.726562,-0.101562 1.085938,0 2.640625,0 3.726563,0.101562 v -0.785156 h -0.828125 c -2.070313,0 -2.070313,-0.261718 -2.070313,-0.945312 z m 0,0"
       id="path76"
       inkscape:connector-curvature="0" />
    <path
       style="fill:#000000;fill-opacity:1;fill-rule:nonzero;stroke:none"
       d="m 62.917969,36.699219 c 0,-0.417969 0,-0.996094 -0.621094,-0.996094 -0.621094,0 -0.621094,0.578125 -0.621094,0.996094 v 24.695312 c 0,0.417969 0,0.996094 0.621094,0.996094 0.621094,0 0.621094,-0.578125 0.621094,-0.996094 z m 0,0"
       id="path78"
       inkscape:connector-curvature="0" />
    <path
       style="fill:#000000;fill-opacity:1;fill-rule:nonzero;stroke:none"
       d="m 80.707031,45.980469 c 0.464844,0 0.671875,0 0.984375,-0.210938 0.257813,-0.261719 0.414063,-0.628906 0.414063,-0.835937 0,-0.734375 -0.671875,-0.734375 -1.140625,-0.734375 h -6.46875 c -4.089844,0 -7.199219,4.246093 -7.199219,7.445312 0,2.621094 1.867187,4.351563 4.296875,4.351563 3.316406,0 6.9375,-3.253906 6.9375,-7.238282 0,-1.414062 -0.515625,-2.253906 -0.773438,-2.777343 z m -9.058593,9.28125 c -1.347657,0 -2.484376,-0.890625 -2.484376,-2.832031 0,-1.152344 0.621094,-6.449219 4.863282,-6.449219 2.589844,0 2.589844,1.992187 2.589844,2.515625 0,2.78125 -1.863282,6.765625 -4.96875,6.765625 z m 0,0"
       id="path80"
       inkscape:connector-curvature="0" />
    <path
       style="fill:#000000;fill-opacity:1;fill-rule:nonzero;stroke:none"
       d="m 89.40625,37.082031 c 0.152344,-0.316406 0.207031,-0.523437 0.207031,-0.628906 0,-0.628906 -0.570312,-1.15625 -1.242187,-1.15625 -0.777344,0 -1.039063,0.683594 -1.089844,1 l -2.792969,8.597656 c 0,0.101563 -0.105469,0.261719 -0.105469,0.3125 0,0.367188 0.828126,0.523438 0.828126,0.523438 0.207031,0 0.257812,-0.15625 0.363281,-0.3125 z m 0,0"
       id="path82"
       inkscape:connector-curvature="0" />
    <path
       style="fill:#000000;fill-opacity:1;fill-rule:nonzero;stroke:none"
       d="m 89.335938,51.519531 c 0,-0.628906 -0.05078,-0.628906 -0.671876,-0.628906 -1.292968,1.308594 -3.3125,1.308594 -4.039062,1.308594 v 0.789062 c 0.519531,0 1.863281,0 3.054688,-0.578125 v 10.117188 c 0,0.683594 0,0.945312 -2.070313,0.945312 H 84.78125 v 0.785156 c 1.085938,-0.105468 2.640625,-0.105468 3.726562,-0.105468 1.089844,0 2.640626,0 3.730469,0.105468 V 63.472656 H 91.40625 c -2.070312,0 -2.070312,-0.261718 -2.070312,-0.945312 z m 0,0"
       id="path84"
       inkscape:connector-curvature="0" />
    <path
       style="fill:#000000;fill-opacity:1;fill-rule:nonzero;stroke:none"
       d="m 114.51172,52.527344 c 0,-0.101563 0,-0.207032 -0.67188,-0.890625 -3.98828,-4.035157 -6.21484,-10.640625 -6.21484,-18.820313 0,-7.8125 1.86328,-14.523437 6.47266,-19.242187 0.41406,-0.367188 0.41406,-0.417969 0.41406,-0.578125 0,-0.207032 -0.20703,-0.3125 -0.36328,-0.3125 -0.51563,0 -3.77735,2.882812 -5.69531,6.816406 -2.01563,4.089844 -2.94922,8.335938 -2.94922,13.316406 0,3.566406 0.57031,8.335938 2.58984,12.582032 2.37891,4.824218 5.58984,7.445312 6.05469,7.445312 0.15625,0 0.36328,-0.105469 0.36328,-0.316406 z m 0,0"
       id="path86"
       inkscape:connector-curvature="0" />
    <path
       style="fill:#000000;fill-opacity:1;fill-rule:nonzero;stroke:none"
       d="m 134.15234,25.476562 c 0,-0.210937 -0.15234,-0.367187 -0.35937,-0.367187 -0.3125,0 -1.8125,1.46875 -2.58985,2.882813 -0.72656,-1.835938 -1.91796,-2.882813 -3.62499,-2.882813 -4.50391,0 -9.31641,5.820313 -9.31641,11.796875 0,3.929688 2.27734,6.289062 4.96875,6.289062 2.12109,0 3.83203,-1.625 4.66016,-2.566406 l 0.0508,0.05078 -1.5,6.03125 -0.36328,1.464843 c -0.36329,1.15625 -0.9336,1.15625 -2.79688,1.207031 -0.41406,0 -0.82812,0 -0.82812,0.785157 0,0.265625 0.25781,0.367187 0.51953,0.367187 0.5664,0 1.24218,-0.05078 1.80859,-0.05078 h 4.03906 c 0.6211,0 1.29688,0.05078 1.86328,0.05078 0.26172,0 0.72657,0 0.72657,-0.734375 0,-0.417969 -0.3125,-0.417969 -0.9336,-0.417969 -1.86328,0 -1.96484,-0.261718 -1.96484,-0.578124 0,-0.207032 0.0508,-0.261719 0.15234,-0.785157 z m -5.58984,12.53125 c -0.15625,0.679688 -0.15625,0.785157 -0.72656,1.519532 -0.87891,1.101562 -2.64063,2.832031 -4.44922,2.832031 -1.66016,0 -2.53906,-1.46875 -2.53906,-3.828125 0,-2.203125 1.1914,-6.710938 1.96875,-8.390625 1.34375,-2.828125 3.21093,-4.246094 4.76172,-4.246094 2.58984,0 3.10546,3.304688 3.10546,3.617188 0,0.05469 -0.10156,0.527343 -0.15234,0.628906 z m 0,0"
       id="path88"
       inkscape:connector-curvature="0" />
    <path
       style="fill:#000000;fill-opacity:1;fill-rule:nonzero;stroke:none"
       d="m 142.1875,31.753906 c 0,-0.734375 -0.0547,-0.734375 -0.77734,-0.734375 -1.08594,1.050781 -2.48438,1.679688 -4.96875,1.679688 v 0.890625 c 0.72265,0 2.12109,0 3.67578,-0.683594 v 13.683594 c 0,0.996094 -0.10547,1.3125 -2.58985,1.3125 h -0.93359 v 0.890625 c 1.08984,-0.105469 3.36719,-0.105469 4.55859,-0.105469 1.1875,0 3.46875,0 4.55469,0.105469 v -0.890625 h -0.93359 c -2.48438,0 -2.58594,-0.316406 -2.58594,-1.3125 z m 0,0"
       id="path90"
       inkscape:connector-curvature="0" />
    <path
       style="fill:#000000;fill-opacity:1;fill-rule:nonzero;stroke:none"
       d="m 155.89844,14.152344 c 0,-0.734375 0,-1.46875 -0.82813,-1.46875 -0.77734,0 -0.77734,0.734375 -0.77734,1.46875 V 51.375 c 0,0.683594 0,1.414062 0.77734,1.414062 0.82813,0 0.82813,-0.730468 0.82813,-1.414062 z m 0,0"
       id="path92"
       inkscape:connector-curvature="0" />
    <path
       style="fill:#000000;fill-opacity:1;fill-rule:nonzero;stroke:none"
       d="m 178.03125,25.476562 c 0,-0.210937 -0.15625,-0.367187 -0.36328,-0.367187 -0.3086,0 -1.8086,1.46875 -2.58594,2.882813 -0.72656,-1.835938 -1.91797,-2.882813 -3.625,-2.882813 -4.50391,0 -9.32031,5.820313 -9.32031,11.796875 0,3.929688 2.28125,6.289062 4.97265,6.289062 2.1211,0 3.83204,-1.625 4.66016,-2.566406 l 0.0508,0.05078 -1.5039,6.03125 -0.35938,1.464843 c -0.36328,1.15625 -0.93359,1.15625 -2.79687,1.207031 -0.41407,0 -0.82813,0 -0.82813,0.785157 0,0.265625 0.25781,0.367187 0.51563,0.367187 0.57031,0 1.24609,-0.05078 1.8125,-0.05078 h 4.03906 c 0.62109,0 1.29297,0.05078 1.86328,0.05078 0.26172,0 0.72656,0 0.72656,-0.734375 0,-0.417969 -0.3125,-0.417969 -0.93359,-0.417969 -1.86328,0 -1.96485,-0.261718 -1.96485,-0.578124 0,-0.207032 0.0508,-0.261719 0.15235,-0.785157 z m -5.58984,12.53125 c -0.15625,0.679688 -0.15625,0.785157 -0.72657,1.519532 -0.8789,1.101562 -2.64062,2.832031 -4.44922,2.832031 -1.66015,0 -2.53906,-1.46875 -2.53906,-3.828125 0,-2.203125 1.19141,-6.710938 1.96875,-8.390625 1.34375,-2.828125 3.20703,-4.246094 4.76172,-4.246094 2.58984,0 3.10547,3.304688 3.10547,3.617188 0,0.05469 -0.10156,0.527343 -0.15625,0.628906 z m 0,0"
       id="path94"
       inkscape:connector-curvature="0" />
    <path
       style="fill:#000000;fill-opacity:1;fill-rule:nonzero;stroke:none"
       d="m 186.19141,13.523438 c 0.15625,-0.3125 0.25781,-0.523438 0.25781,-0.785157 0,-0.890625 -0.82813,-1.46875 -1.55078,-1.46875 -1.03516,0 -1.34766,0.945313 -1.44922,1.3125 l -3.36719,11.53125 c -0.10156,0.316407 -0.10156,0.367188 -0.10156,0.421875 0,0.207032 0.15625,0.261719 0.41406,0.367188 0.51563,0.207031 0.57031,0.207031 0.62109,0.207031 0.0508,0 0.20704,0 0.41407,-0.46875 z m 0,0"
       id="path96"
       inkscape:connector-curvature="0" />
    <path
       style="fill:#000000;fill-opacity:1;fill-rule:nonzero;stroke:none"
       d="m 186.06641,35.652344 c 0,-0.734375 -0.0547,-0.734375 -0.77735,-0.734375 -1.08594,1.050781 -2.48437,1.679687 -4.97265,1.679687 v 0.890625 c 0.72656,0 2.125,0 3.67578,-0.683593 v 13.6875 c 0,0.996093 -0.10157,1.308593 -2.58594,1.308593 h -0.93359 v 0.890625 c 1.08984,-0.105468 3.36718,-0.105468 4.55859,-0.105468 1.1875,0 3.46875,0 4.55469,0.105468 v -0.890625 h -0.9336 c -2.48437,0 -2.58593,-0.3125 -2.58593,-1.308593 z m 0,0"
       id="path98"
       inkscape:connector-curvature="0" />
    <path
       style="fill:#000000;fill-opacity:1;fill-rule:nonzero;stroke:none"
       d="m 201.17578,42.933594 c 0,-2.304688 -0.72266,-4.035156 -2.37891,-4.035156 -1.24218,0 -1.86328,1.046874 -1.86328,1.9375 0,0.839843 0.56641,1.941406 1.91407,1.941406 0.51953,0 0.93359,-0.15625 1.29296,-0.523438 0.10547,-0.05469 0.15625,-0.05469 0.15625,-0.05469 0.10547,0 0.10547,0.527343 0.10547,0.734375 0,1.3125 -0.26172,3.933594 -2.53906,6.554687 -0.46484,0.472657 -0.46484,0.523438 -0.46484,0.628907 0,0.210937 0.20703,0.417968 0.41406,0.417968 0.30859,0 3.36328,-2.988281 3.36328,-7.601562 z m 0,0"
       id="path100"
       inkscape:connector-curvature="0" />
    <path
       style="fill:#000000;fill-opacity:1;fill-rule:nonzero;stroke:none"
       d="m 219.55078,25.476562 c 0,-0.15625 -0.10547,-0.367187 -0.41406,-0.367187 -0.25781,0 -3.98828,0.367187 -4.60938,0.367187 -0.41406,0.05078 -0.82812,0.105469 -0.82812,0.839844 0,0.367188 0.3125,0.367188 0.88281,0.367188 1.86328,0 1.96484,0.3125 1.96484,0.730468 0,0.160157 -0.0508,0.628907 -0.10156,0.789063 l -3.46875,14.15625 c 0,0.15625 0.10156,0.417969 0.36328,0.417969 h 0.82813 c 0.5664,0 6.57422,-1.46875 11.23437,-6.238282 5.07032,-5.347656 5.79688,-10.277343 5.79688,-10.433593 0,-0.628907 -0.51953,-0.996094 -1.03516,-0.996094 -1.14062,0 -1.39844,1.046875 -1.5,1.363281 -2.33203,8.386719 -7.76562,13.316406 -12.99609,15.097656 z m 0,0"
       id="path102"
       inkscape:connector-curvature="0" />
    <path
       style="fill:#000000;fill-opacity:1;fill-rule:nonzero;stroke:none"
       d="m 238.28516,31.753906 c 0,-0.734375 -0.0508,-0.734375 -0.77344,-0.734375 -1.08985,1.050781 -2.48828,1.679688 -4.97266,1.679688 v 0.890625 c 0.72656,0 2.125,0 3.67578,-0.683594 v 13.683594 c 0,0.996094 -0.10156,1.3125 -2.58593,1.3125 h -0.9336 v 0.890625 C 233.78125,48.6875 236.05859,48.6875 237.25,48.6875 c 1.19141,0 3.46875,0 4.55859,0.105469 V 47.902344 H 240.875 c -2.48438,0 -2.58984,-0.316406 -2.58984,-1.3125 z m 0,0"
       id="path104"
       inkscape:connector-curvature="0" />
    <path
       style="fill:#000000;fill-opacity:1;fill-rule:nonzero;stroke:none"
       d="m 251.99609,14.152344 c 0,-0.734375 0,-1.46875 -0.82812,-1.46875 -0.77344,0 -0.77344,0.734375 -0.77344,1.46875 V 51.375 c 0,0.683594 0,1.414062 0.77344,1.414062 0.82812,0 0.82812,-0.730468 0.82812,-1.414062 z m 0,0"
       id="path106"
       inkscape:connector-curvature="0" />
    <path
       style="fill:#000000;fill-opacity:1;fill-rule:nonzero;stroke:none"
       d="m 265.38281,25.476562 c 0,-0.15625 -0.10156,-0.367187 -0.41406,-0.367187 -0.25781,0 -3.98438,0.367187 -4.60938,0.367187 -0.41406,0.05078 -0.82812,0.105469 -0.82812,0.839844 0,0.367188 0.3125,0.367188 0.88281,0.367188 1.86328,0 1.96485,0.3125 1.96485,0.730468 0,0.160157 -0.0508,0.628907 -0.10157,0.789063 l -3.46875,14.15625 c 0,0.15625 0.10157,0.417969 0.36328,0.417969 H 260 c 0.56641,0 6.57422,-1.46875 11.23437,-6.238282 5.07422,-5.347656 5.79688,-10.277343 5.79688,-10.433593 0,-0.628907 -0.51563,-0.996094 -1.03516,-0.996094 -1.14062,0 -1.39843,1.046875 -1.5,1.363281 -2.33203,8.386719 -7.76562,13.316406 -12.99609,15.097656 z m 0,0"
       id="path108"
       inkscape:connector-curvature="0" />
    <path
       style="fill:#000000;fill-opacity:1;fill-rule:nonzero;stroke:none"
       d="m 285.33594,13.523438 c 0.15625,-0.3125 0.26172,-0.523438 0.26172,-0.785157 0,-0.890625 -0.82813,-1.46875 -1.55469,-1.46875 -1.03516,0 -1.34766,0.945313 -1.44922,1.3125 l -3.36719,11.53125 c -0.10156,0.316407 -0.10156,0.367188 -0.10156,0.421875 0,0.207032 0.15625,0.261719 0.41406,0.367188 0.51563,0.207031 0.57031,0.207031 0.6211,0.207031 0.0508,0 0.20703,0 0.41406,-0.46875 z m 0,0"
       id="path110"
       inkscape:connector-curvature="0" />
    <path
       style="fill:#000000;fill-opacity:1;fill-rule:nonzero;stroke:none"
       d="m 284.13281,35.652344 c 0,-0.734375 -0.0508,-0.734375 -0.77734,-0.734375 -1.08594,1.050781 -2.48438,1.679687 -4.96875,1.679687 v 0.890625 c 0.72656,0 2.12109,0 3.67578,-0.683593 v 13.6875 c 0,0.996093 -0.10547,1.308593 -2.58984,1.308593 h -0.92969 v 0.890625 c 1.08594,-0.105468 3.36328,-0.105468 4.55469,-0.105468 1.1914,0 3.46875,0 4.55468,0.105468 v -0.890625 h -0.92968 c -2.48438,0 -2.58985,-0.3125 -2.58985,-1.308593 z m 0,0"
       id="path112"
       inkscape:connector-curvature="0" />
    <path
       style="fill:#000000;fill-opacity:1;fill-rule:nonzero;stroke:none"
       d="m 302.71094,32.816406 c 0,-3.09375 -0.41407,-8.023437 -2.64063,-12.6875 -2.32812,-4.824218 -5.58984,-7.445312 -6.0039,-7.445312 -0.15625,0 -0.36329,0.105468 -0.36329,0.3125 0,0.160156 0,0.210937 0.67188,0.894531 3.98828,4.035156 6.16016,10.695313 6.16016,18.871094 0,7.761719 -1.86329,14.472656 -6.41797,19.191406 -0.41407,0.367187 -0.41407,0.472656 -0.41407,0.574219 0,0.210937 0.20704,0.316406 0.36329,0.316406 0.51562,0 3.77734,-2.882812 5.69531,-6.816406 2.01562,-4.089844 2.94922,-8.441406 2.94922,-13.210938 z m 0,0"
       id="path114"
       inkscape:connector-curvature="0" />
    <path
       style="fill:#000000;fill-opacity:1;fill-rule:nonzero;stroke:none"
       d="m 353.875,38.921875 c 0.66406,0 1.51562,0 1.51562,1.28125 0,1.28125 -0.78906,1.28125 -1.51562,1.28125 h -27.28125 c -0.66797,0 -1.51563,0 -1.51563,-1.28125 0,-1.28125 0.78516,-1.28125 1.51563,-1.28125 z m 0,-12.996094 c 0.66406,0 1.51562,0 1.51562,1.191407 0,1.371093 -0.78906,1.371093 -1.51562,1.371093 h -27.28125 c -0.66797,0 -1.51563,0 -1.51563,-1.28125 0,-1.28125 0.78516,-1.28125 1.51563,-1.28125 z m 0,0"
       id="path116"
       inkscape:connector-curvature="0" />
  </g>
</svg>
